<svg id="visual" viewBox="0 0 960 540" width="960" height="540" xmlns="http://www.w3.org/2000/svg" xmlns:xlink="http://www.w3.org/1999/xlink" version="1.1"><rect x="0" y="0" width="960" height="540" fill="#000000"></rect><defs><linearGradient id="grad1_0" x1="43.8%" y1="100%" x2="100%" y2="0%"><stop offset="14.444444444444446%" stop-color="#000000" stop-opacity="1"></stop><stop offset="85.55555555555554%" stop-color="#000000" stop-opacity="1"></stop></linearGradient></defs><defs><linearGradient id="grad2_0" x1="0%" y1="100%" x2="56.3%" y2="0%"><stop offset="14.444444444444446%" stop-color="#000000" stop-opacity="1"></stop><stop offset="85.55555555555554%" stop-color="#000000" stop-opacity="1"></stop></linearGradient></defs><g transform="translate(960, 540)"><path d="M-189 0C-161.9 -15.9 -134.9 -31.8 -125.6 -52C-116.4 -72.2 -125 -96.7 -119.5 -119.5C-114 -142.3 -94.6 -163.3 -72.3 -174.6C-50.1 -185.9 -25 -187.5 0 -189L0 0Z" fill="#91f5ad"></path></g><g transform="translate(0, 0)"><path d="M189 0C188.9 26.8 188.8 53.7 174.6 72.3C160.4 91 132.1 101.4 111 111C90 120.6 76.2 129.4 58.9 142.3C41.6 155.1 20.8 172.1 0 189L0 0Z" fill="#91f5ad"></path></g></svg>