<svg width="18" height="24" xmlns="http://www.w3.org/2000/svg" xmlns:xlink="http://www.w3.org/1999/xlink"><defs><path d="M11.571 17.71a1.582 1.582 0 01-1.744 1.399l-8.389-.916a1.58 1.58 0 01-1.4-1.743L1.676 1.479A1.58 1.58 0 013.42.08l8.388.916a1.58 1.58 0 011.401 1.742L11.571 17.71z" id="a"/></defs><g transform="translate(2 2)" fill="none" fill-rule="evenodd"><use fill="#BB2725" xlink:href="#a"/><path stroke="#FFF" stroke-width="2" d="M10.577 17.6zm1.988.218a2.582 2.582 0 01-2.847 2.285l-8.388-.916A2.58 2.58 0 01-.956 16.34L.682 1.37A2.58 2.58 0 013.528-.914l8.39.916a2.581 2.581 0 012.285 2.845l-1.638 14.971z"/></g></svg>